<svg width="19" height="18" viewBox="0 0 19 18" fill="none" xmlns="http://www.w3.org/2000/svg">
<path d="M17.6368 14.4887L14.9663 11.8182C14.2167 11.0686 13.0014 11.0686 12.2517 11.8182L11.8339 12.236C11.4977 12.5715 11.2641 12.9958 11.1604 13.4593C10.2553 13.4762 9.23163 13.3223 8.3561 12.7542C7.81832 12.3545 7.31049 11.916 6.83668 11.4422C6.43641 11.0421 6.0611 10.6179 5.71287 10.1718C5.03052 9.2551 4.85045 8.14258 4.86867 7.16753C5.33215 7.0639 5.75648 6.83027 6.09189 6.49404L6.50969 6.07624C7.25929 5.32664 7.25929 4.11129 6.50969 3.36165L3.83925 0.691216C3.33951 0.19147 2.52926 0.19147 2.02955 0.691216L1.57108 1.14979C0.983334 1.73754 0.682466 2.50303 0.666822 3.27327C0.516318 4.89837 0.827557 6.68733 1.56693 8.44679C2.05511 9.60849 2.72536 10.7428 3.54166 11.7971C3.55196 11.8109 3.56173 11.8249 3.57217 11.8386L3.57337 11.8377C3.99013 12.3724 4.43947 12.8808 4.91883 13.3601C5.41425 13.8559 5.94063 14.3198 6.49478 14.7489L6.48944 14.756C6.58176 14.826 6.67593 14.8935 6.77185 14.9585C9.10134 16.6815 11.7343 17.6495 14.1844 17.6494C14.3276 17.6494 14.4702 17.6453 14.6121 17.6386C15.5247 17.7508 16.4777 17.4575 17.1782 16.757L17.6368 16.2984C18.1365 15.7987 18.1365 14.9884 17.6368 14.4887Z" fill="#6E9C9B"/>
</svg>
