<svg width="19" height="19" viewBox="0 0 19 19" fill="none" xmlns="http://www.w3.org/2000/svg">
<g clip-path="url(#clip0_250_130)">
<path d="M11.7001 10.4076C12.1056 10.5351 12.4942 10.7114 12.8573 10.9326L12.8341 10.9191C13.2308 11.0953 13.5736 11.3016 13.8863 11.5438L13.8751 11.5356C13.8901 11.5813 13.8991 11.6331 13.8991 11.6878L13.8983 11.7118V11.7111C13.8871 12.0328 13.8158 12.3351 13.6951 12.6103L13.7011 12.5946C13.5278 12.9418 13.2391 13.2096 12.8858 13.3521L12.8753 13.3558C12.5098 13.5469 12.1056 13.6523 11.6933 13.6641H11.6888C10.9019 13.5629 10.1414 13.3129 9.44784 12.9276L9.48009 12.9441C8.74344 12.6103 8.07355 12.1455 7.50309 11.5723L7.50234 11.5716C6.88013 10.9237 6.31597 10.2225 5.81634 9.47605L5.78109 9.42055C5.28529 8.77245 4.99764 7.98925 4.95609 7.1743L4.95534 7.16455V7.07155C4.96635 6.72343 5.04809 6.3812 5.1956 6.06568C5.3431 5.75017 5.55328 5.46798 5.81334 5.2363L5.81559 5.23405C5.97624 5.07399 6.19261 4.98233 6.41934 4.9783H6.42009C6.49584 4.98055 6.56859 4.98655 6.63909 4.99705L6.62934 4.99555C6.69459 5.0053 6.77034 5.0113 6.84834 5.0128H6.85059C6.95979 5.00218 7.06933 5.02917 7.16109 5.0893L7.15959 5.08855C7.23984 5.17705 7.30134 5.2843 7.33809 5.40205L7.33959 5.40805C7.40159 5.56305 7.52959 5.90405 7.72359 6.43105C7.82484 6.66655 7.92384 6.9568 8.00334 7.2553L8.01384 7.30255C7.95975 7.56358 7.81885 7.7986 7.61409 7.9693L7.61184 7.9708C7.34434 8.2538 7.21059 8.4338 7.21059 8.5108C7.21346 8.57394 7.23456 8.6349 7.27134 8.6863L7.27059 8.68555C7.56066 9.28521 7.96174 9.82447 8.45259 10.2748L8.45634 10.2786C8.97021 10.7415 9.54629 11.1302 10.1678 11.4336L10.2121 11.4531C10.2881 11.5024 10.3758 11.5306 10.4663 11.5348H10.4678C10.5843 11.5348 10.7938 11.3468 11.0963 10.9708C11.3988 10.5948 11.5998 10.4068 11.6993 10.4068L11.7001 10.4076ZM9.33984 16.5696H9.35634C10.3411 16.571 11.3154 16.3669 12.2168 15.9703L12.1711 15.9883C13.9381 15.2428 15.3158 13.8651 16.0433 12.1453L16.0613 12.0981C16.4288 11.2633 16.6426 10.2898 16.6426 9.2668C16.6426 8.2438 16.4288 7.2703 16.0433 6.38905L16.0613 6.43555C15.3158 4.66855 13.9381 3.2908 12.2183 2.5633L12.1711 2.5453C11.3363 2.1778 10.3628 1.96405 9.33984 1.96405C8.31684 1.96405 7.34334 2.1778 6.46209 2.5633L6.50859 2.5453C4.74159 3.2908 3.36384 4.66855 2.63634 6.3883L2.61834 6.43555C2.23164 7.33235 2.03378 8.29919 2.03709 9.2758C2.03467 10.8199 2.52873 12.3239 3.44634 13.5658L3.43209 13.5463L2.51334 16.2561L5.32734 15.3606C6.50288 16.1523 7.88879 16.5734 9.30609 16.5696H9.34134H9.33984ZM9.33984 0.500051H9.36459C10.5856 0.500051 11.7466 0.756551 12.7958 1.2193L12.7411 1.19755C14.8598 2.0953 16.5121 3.74755 17.3881 5.8093L17.4098 5.8663C17.8508 6.86905 18.1073 8.0383 18.1073 9.26755C18.1073 10.4968 17.8508 11.6661 17.3881 12.7243L17.4098 12.6688C16.5121 14.7876 14.8598 16.4398 12.7981 17.3158L12.7411 17.3376C11.7458 17.7786 10.5848 18.0351 9.36384 18.0351H9.33834H9.33984H9.30009C7.75584 18.0351 6.30609 17.6293 5.05209 16.9191L5.09484 16.9416L0.246094 18.5001L1.82784 13.7908C1.00218 12.4326 0.567703 10.8728 0.572344 9.2833C0.572344 8.0488 0.828844 6.8743 1.29159 5.81005L1.26984 5.8663C2.16759 3.74755 3.81984 2.0953 5.88159 1.2193L5.93859 1.19755C7.00384 0.733525 8.15392 0.496 9.31584 0.500051H9.34059H9.33909H9.33984Z" fill="#6E9C9B"/>
</g>
<defs>
<clipPath id="clip0_250_130">
<rect width="18" height="18" fill="white" transform="translate(0.24707 0.5)"/>
</clipPath>
</defs>
</svg>
