<svg width="27" height="30" viewBox="0 0 27 30" fill="none" xmlns="http://www.w3.org/2000/svg">
<path d="M7.22656 14.0625H5.27344C4.95117 14.0625 4.6875 13.7988 4.6875 13.4766V11.5234C4.6875 11.2012 4.95117 10.9375 5.27344 10.9375H7.22656C7.54883 10.9375 7.8125 11.2012 7.8125 11.5234V13.4766C7.8125 13.7988 7.54883 14.0625 7.22656 14.0625ZM12.5 13.4766V11.5234C12.5 11.2012 12.2363 10.9375 11.9141 10.9375H9.96094C9.63867 10.9375 9.375 11.2012 9.375 11.5234V13.4766C9.375 13.7988 9.63867 14.0625 9.96094 14.0625H11.9141C12.2363 14.0625 12.5 13.7988 12.5 13.4766ZM17.1875 13.4766V11.5234C17.1875 11.2012 16.9238 10.9375 16.6016 10.9375H14.6484C14.3262 10.9375 14.0625 11.2012 14.0625 11.5234V13.4766C14.0625 13.7988 14.3262 14.0625 14.6484 14.0625H16.6016C16.9238 14.0625 17.1875 13.7988 17.1875 13.4766ZM12.5 18.1641V16.2109C12.5 15.8887 12.2363 15.625 11.9141 15.625H9.96094C9.63867 15.625 9.375 15.8887 9.375 16.2109V18.1641C9.375 18.4863 9.63867 18.75 9.96094 18.75H11.9141C12.2363 18.75 12.5 18.4863 12.5 18.1641ZM7.8125 18.1641V16.2109C7.8125 15.8887 7.54883 15.625 7.22656 15.625H5.27344C4.95117 15.625 4.6875 15.8887 4.6875 16.2109V18.1641C4.6875 18.4863 4.95117 18.75 5.27344 18.75H7.22656C7.54883 18.75 7.8125 18.4863 7.8125 18.1641ZM17.1875 18.1641V16.2109C17.1875 15.8887 16.9238 15.625 16.6016 15.625H14.6484C14.3262 15.625 14.0625 15.8887 14.0625 16.2109V18.1641C14.0625 18.4863 14.3262 18.75 14.6484 18.75H16.6016C16.9238 18.75 17.1875 18.4863 17.1875 18.1641ZM21.875 5.46875V22.6562C21.875 23.9502 20.8252 25 19.5312 25H2.34375C1.0498 25 0 23.9502 0 22.6562V5.46875C0 4.1748 1.0498 3.125 2.34375 3.125H4.6875V0.585938C4.6875 0.263672 4.95117 0 5.27344 0H7.22656C7.54883 0 7.8125 0.263672 7.8125 0.585938V3.125H14.0625V0.585938C14.0625 0.263672 14.3262 0 14.6484 0H16.6016C16.9238 0 17.1875 0.263672 17.1875 0.585938V3.125H19.5312C20.8252 3.125 21.875 4.1748 21.875 5.46875ZM19.5312 22.3633V7.8125H2.34375V22.3633C2.34375 22.5244 2.47559 22.6562 2.63672 22.6562H19.2383C19.3994 22.6562 19.5312 22.5244 19.5312 22.3633Z" fill="#007BA7"/>
<path d="M19.5 28.3594C22.736 28.3594 25.3594 25.736 25.3594 22.5C25.3594 19.264 22.736 16.6406 19.5 16.6406C16.264 16.6406 13.6406 19.264 13.6406 22.5C13.6406 25.736 16.264 28.3594 19.5 28.3594Z" stroke="#C9B26B" stroke-width="2" stroke-linecap="round" stroke-linejoin="round"/>
<path d="M19.7344 19.4531V22.7344L17.3906 24.6094" stroke="#C9B26B" stroke-width="2" stroke-linecap="round" stroke-linejoin="round"/>
</svg>
